
        <svg xmlns="http://www.w3.org/2000/svg" xmlns:xlink="http://www.w3.org/1999/xlink" version="1.1" width="2871.6643868249603" 
        height="3225.781966531692" viewBox="0 0 2871.6643868249603 3225.781966531692">
			
			<g transform="scale(11.289098326584611) translate(10, 10)">
				<defs id="SvgjsDefs1807"></defs><g id="SvgjsG1808" featureKey="rootContainer" transform="matrix(4.725301111045653,0,0,4.725301111045653,0.0000347689931040783,0.019721259814305742)" fill="#0c056d"><path xmlns="http://www.w3.org/2000/svg" d="M23.11 55.78L1.69 43.41A3.39 3.39 0 0 1 0 40.48V15.75a3.39 3.39 0 0 1 1.69-2.94L23.11.45a3.39 3.39 0 0 1 3.39 0l21.41 12.37a3.39 3.39 0 0 1 1.69 2.94v24.72a3.39 3.39 0 0 1-1.69 2.94L26.5 55.78a3.39 3.39 0 0 1-3.39 0z"></path></g><g id="SvgjsG1809" featureKey="symbolFeature-0" transform="matrix(1.1307066353345105,0,0,1.1307066353345105,59.911615378891966,39.862569883005236)" fill="#f25d9c"><metadata xmlns="http://www.w3.org/2000/svg"><sfw xmlns="http://ns.adobe.com/SaveForWeb/1.0/"><slices><slicesourcebounds bottomleftorigin="true" width="80.844" height="63.675" y="368.131" x="600.192"></slicesourcebounds></slices></sfw></metadata><g xmlns="http://www.w3.org/2000/svg"><path fill="#f25d9c" d="M87.262,42.976l4.274-1.718l-4.375-3.119l3.964-1.605L66.038,18.694l-15.563,4.787l2.114,1.794   l12.948-4.001L86.14,35.956l-13.936,5.671l-0.084,0.031l-1.201-0.967l12.995-5.09L65.353,22.26l-11.891,3.767l-0.896-0.751   l-2.135-1.794l-1.479-1.243l-18.67,6.104l1.194,0.962l-20.785,6.431l3.891,3.526l-3.88,1.196l3.947,3.548l-3.947,1.218l3.947,3.547   l-3.947,1.218l3.947,3.548l-3.947,1.218l3.947,3.548l-3.947,1.218l25.15,22.85L53.5,75.166v1.748l19-6.678v-2.346l18.938-7.572   l-4.225-3.047l4.299-1.719l-4.262-3.047l4.28-1.718l-4.271-3.047l4.276-1.719L87.262,42.976z M64.939,24.85l14.11,10.142   l-10.173,3.984l-2.153-1.81c-0.698-5.696-6.333-7.659-9.919-8.332l-1.218-1.022L64.939,24.85z M33.703,31.104l1.054,0.845   L18.1,37.225l18.778,16.799l16.634-6.635L53.5,47.821v0.865l-17.379,7.183L15.103,36.755L33.703,31.104z M49.182,43.56l2.614,2.106   l-14.429,5.65L22.727,38.218l14.226-4.505l1.019,0.82C37.754,37.229,38.513,43.129,49.182,43.56z M35.635,58.589L53.5,51.213v2.366   l-17.166,7.01l-21.125-19.11l1.188-0.388L35.635,58.589z M35.854,63.308L53.5,56.105v2.239l-17.166,7.009L15.209,46.244   l1.268-0.413L35.854,63.308z M35.854,68.073L53.5,60.87v2.239l-17.166,7.01l-21.125-19.11l1.268-0.412L35.854,68.073z    M35.854,72.839L53.5,65.636v2.239l-17.166,7.01l-21.125-19.11l1.268-0.413L35.854,72.839z M36.334,79.649L15.209,60.54   l1.404-0.413L35.82,77.604l17.68-7.202v2.239L36.334,79.649z M69.5,44.938v23.669l-13,4.935V50.271v-2.527v-1.045l-2.506-2.019   l-14.52-11.817l-2.112-1.765l-1.001-0.838l-1.263-1.032l13.335-4.357l1.465,1.226l0.915,0.767l2.127,1.786l13.45,11.3l1.919,1.716   l1.19,1.384V44.938z M86.59,45.444L72.5,51.068V48.83l12.033-4.817L86.59,45.444z M84.488,39.181l2.053,1.498L72.5,46.303v-2.306   L84.488,39.181z M86.59,59.74L72.5,65.364v-2.238l12.033-4.817L86.59,59.74z M86.59,54.975L72.5,60.599V58.36l12.033-4.816   L86.59,54.975z M86.59,50.21L72.5,55.833v-2.238l12.033-4.816L86.59,50.21z"></path><path fill="#f25d9c" d="M64.939,55.221c-1.854-0.419-2.607-0.834-2.605-1.666c0.001-0.733,0.457-1.587,1.855-1.883   c1.55-0.329,2.561,0.06,3.099,0.256l0.653-3.086c-0.754-0.257-1.72-0.445-3.14-0.197l0.004-2.296l-2.114,0.448l-0.005,2.479   c-2.303,1.012-3.641,3.093-3.646,5.42c-0.004,2.529,1.565,3.505,3.87,3.956c1.611,0.31,2.298,0.788,2.297,1.781   c-0.003,1.019-0.842,1.795-2.095,2.061c-1.396,0.297-2.666,0.021-3.568-0.392l-0.651,3.193c0.817,0.377,2.216,0.573,3.657,0.346   l-0.004,2.48l2.134-0.453l0.005-2.688c2.474-1.021,3.811-3.288,3.814-5.61C68.505,56.993,67.496,55.771,64.939,55.221z"></path></g></g><g id="SvgjsG1810" featureKey="nameFeature-0" transform="matrix(1.7856912551009567,0,0,1.7856912551009567,36.899172664141126,132.5925865039568)" fill="#f25d9c"><path d="M2.8571 40 l0 -28.571 l20.857 0 l4.2857 4.2857 l0 12 l-4.2857 4.2857 l-13.429 0 l0 8 l-7.4286 0 z M10.286 25.714 l10.286 0 l0 -8 l-10.286 0 l0 8 z M34.57138571428572 35.7143 l0 -24.286 l7.4286 0 l0 22.286 l15.429 0 l0 6.2857 l-18.571 0 z M79.14328571428571 17.714 l-9.1429 0 l0 16 l9.1429 0 l2.2857 -2.2857 l5.4286 0 l0 4.2857 l-4.2857 4.2857 l-15.714 0 l-4.2857 -4.2857 l0 -20 l4.2857 -4.2857 l15.714 0 l4.2857 4.2857 l0 4.2857 l-5.4286 0 z"></path></g>
			</g>
		</svg>
	